{
	"asset":{
		"generator":"Khronos glTF Blender I/O v4.2.60",
		"version":"2.0"
	},
	"scene":0,
	"scenes":[
		{
			"name":"Scene",
			"nodes":[
				0,
				1,
				2,
				3
			]
		}
	],
	"nodes":[
		{
			"mesh":0,
			"name":"black_key",
			"scale":[
				1,
				0.5,
				1
			]
		},
		{
			"mesh":1,
			"name":"white_key_0",
			"scale":[
				1,
				0.5,
				1
			]
		},
		{
			"mesh":2,
			"name":"white_key_1",
			"scale":[
				1,
				0.5,
				1
			]
		},
		{
			"mesh":3,
			"name":"white_key_2",
			"scale":[
				1,
				0.5,
				1
			]
		}
	],
	"materials":[
		{
			"doubleSided":true,
			"name":"black",
			"pbrMetallicRoughness":{
				"baseColorFactor":[
					0,
					0,
					0,
					1
				],
				"metallicFactor":0,
				"roughnessFactor":0.5
			}
		},
		{
			"doubleSided":true,
			"name":"white",
			"pbrMetallicRoughness":{
				"metallicFactor":0,
				"roughnessFactor":0.5
			}
		},
		{
			"doubleSided":true,
			"name":"white.001",
			"pbrMetallicRoughness":{
				"metallicFactor":0,
				"roughnessFactor":0.5
			}
		},
		{
			"doubleSided":true,
			"name":"white.002",
			"pbrMetallicRoughness":{
				"metallicFactor":0,
				"roughnessFactor":0.5
			}
		}
	],
	"meshes":[
		{
			"name":"black_key",
			"primitives":[
				{
					"attributes":{
						"POSITION":0,
						"NORMAL":1,
						"TEXCOORD_0":2
					},
					"indices":3,
					"material":0
				}
			]
		},
		{
			"name":"white_key_0",
			"primitives":[
				{
					"attributes":{
						"POSITION":4,
						"NORMAL":5,
						"TEXCOORD_0":6
					},
					"indices":7,
					"material":1
				}
			]
		},
		{
			"name":"white_key_1",
			"primitives":[
				{
					"attributes":{
						"POSITION":8,
						"NORMAL":9,
						"TEXCOORD_0":10
					},
					"indices":11,
					"material":2
				}
			]
		},
		{
			"name":"white_key_2",
			"primitives":[
				{
					"attributes":{
						"POSITION":12,
						"NORMAL":13,
						"TEXCOORD_0":14
					},
					"indices":15,
					"material":3
				}
			]
		}
	],
	"accessors":[
		{
			"bufferView":0,
			"componentType":5126,
			"count":964,
			"max":[
				0.06678501516580582,
				0.010999999940395355,
				0.007894724607467651
			],
			"min":[
				0,
				-0.02083834633231163,
				-0.007894723676145077
			],
			"type":"VEC3"
		},
		{
			"bufferView":1,
			"componentType":5126,
			"count":964,
			"type":"VEC3"
		},
		{
			"bufferView":2,
			"componentType":5126,
			"count":964,
			"type":"VEC2"
		},
		{
			"bufferView":3,
			"componentType":5123,
			"count":4980,
			"type":"SCALAR"
		},
		{
			"bufferView":4,
			"componentType":5126,
			"count":36,
			"max":[
				0.10500197112560272,
				0.010999999940395355,
				0.006912759505212307
			],
			"min":[
				0,
				-0.010999999940395355,
				-0.015087240375578403
			],
			"type":"VEC3"
		},
		{
			"bufferView":5,
			"componentType":5126,
			"count":36,
			"type":"VEC3"
		},
		{
			"bufferView":6,
			"componentType":5126,
			"count":36,
			"type":"VEC2"
		},
		{
			"bufferView":7,
			"componentType":5123,
			"count":60,
			"type":"SCALAR"
		},
		{
			"bufferView":8,
			"componentType":5126,
			"count":48,
			"max":[
				0.10500197112560272,
				0.010999999940395355,
				0.010856369510293007
			],
			"min":[
				0,
				-0.010999999940395355,
				-0.011143630370497704
			],
			"type":"VEC3"
		},
		{
			"bufferView":9,
			"componentType":5126,
			"count":48,
			"type":"VEC3"
		},
		{
			"bufferView":10,
			"componentType":5126,
			"count":48,
			"type":"VEC2"
		},
		{
			"bufferView":11,
			"componentType":5123,
			"count":84,
			"type":"SCALAR"
		},
		{
			"bufferView":12,
			"componentType":5126,
			"count":36,
			"max":[
				0.10500197112560272,
				0.010999999940395355,
				0.014944213442504406
			],
			"min":[
				0,
				-0.010999999940395355,
				-0.0070557864382863045
			],
			"type":"VEC3"
		},
		{
			"bufferView":13,
			"componentType":5126,
			"count":36,
			"type":"VEC3"
		},
		{
			"bufferView":14,
			"componentType":5126,
			"count":36,
			"type":"VEC2"
		},
		{
			"bufferView":15,
			"componentType":5123,
			"count":60,
			"type":"SCALAR"
		}
	],
	"bufferViews":[
		{
			"buffer":0,
			"byteLength":11568,
			"byteOffset":0,
			"target":34962
		},
		{
			"buffer":0,
			"byteLength":11568,
			"byteOffset":11568,
			"target":34962
		},
		{
			"buffer":0,
			"byteLength":7712,
			"byteOffset":23136,
			"target":34962
		},
		{
			"buffer":0,
			"byteLength":9960,
			"byteOffset":30848,
			"target":34963
		},
		{
			"buffer":0,
			"byteLength":432,
			"byteOffset":40808,
			"target":34962
		},
		{
			"buffer":0,
			"byteLength":432,
			"byteOffset":41240,
			"target":34962
		},
		{
			"buffer":0,
			"byteLength":288,
			"byteOffset":41672,
			"target":34962
		},
		{
			"buffer":0,
			"byteLength":120,
			"byteOffset":41960,
			"target":34963
		},
		{
			"buffer":0,
			"byteLength":576,
			"byteOffset":42080,
			"target":34962
		},
		{
			"buffer":0,
			"byteLength":576,
			"byteOffset":42656,
			"target":34962
		},
		{
			"buffer":0,
			"byteLength":384,
			"byteOffset":43232,
			"target":34962
		},
		{
			"buffer":0,
			"byteLength":168,
			"byteOffset":43616,
			"target":34963
		},
		{
			"buffer":0,
			"byteLength":432,
			"byteOffset":43784,
			"target":34962
		},
		{
			"buffer":0,
			"byteLength":432,
			"byteOffset":44216,
			"target":34962
		},
		{
			"buffer":0,
			"byteLength":288,
			"byteOffset":44648,
			"target":34962
		},
		{
			"buffer":0,
			"byteLength":120,
			"byteOffset":44936,
			"target":34963
		}
	],
	"buffers":[
		{
			"byteLength":45056,
			"uri":"black_key_3.bin"
		}
	]
}
